<svg width="609" height="588" viewBox="0 0 609 588" fill="none" xmlns="http://www.w3.org/2000/svg">
<path fill-rule="evenodd" clip-rule="evenodd" d="M289.89 576.057C234.172 558.346 216.265 489.162 168.494 455.448C119.556 420.909 38.1113 432.326 10.7309 379.042C-16.483 326.082 13.4136 260.174 41.0493 207.433C65.5979 160.583 114.707 136.913 155.341 103.063C199.815 66.0142 232.128 -3.51553 289.89 0.138472C348.224 3.8287 363.468 87.6933 412.618 119.339C466.94 154.314 551.636 137.771 587.321 191.64C623.901 246.862 606.987 321.769 588.932 385.504C570.312 451.238 541.771 519.082 484.166 555.789C427.874 591.658 353.499 596.276 289.89 576.057Z" fill="#50B7F2"/>
</svg>
