<svg width="577" height="514" viewBox="0 0 577 514" fill="none" xmlns="http://www.w3.org/2000/svg">
<path fill-rule="evenodd" clip-rule="evenodd" d="M426.276 490.335C371.479 510.718 314.746 467.262 256.347 470.144C196.521 473.096 139.41 532.272 85.0123 507.176C30.9456 482.233 13.8813 411.902 3.14957 353.334C-6.3833 301.309 17.7103 252.405 28.8564 200.708C41.0561 144.124 23.6631 69.4512 71.4084 36.7375C119.627 3.69951 183.308 60.3591 241.518 54.9981C305.854 49.073 362.368 -16.1444 423.666 4.29555C486.503 25.2488 519.338 94.6679 544.39 155.991C570.228 219.237 589.553 290.257 566.8 354.663C544.566 417.601 488.833 467.065 426.276 490.335Z" fill="#FE99C4"/>
</svg>
